<svg version="1.1" xmlns="http://www.w3.org/2000/svg" xmlns:xlink="http://www.w3.org/1999/xlink" width="70" height="70" viewBox="0,0,70,70"><!-- Generated with https://ivantodorovich.github.io/odoo-icon --><defs><linearGradient x1="70" y1="0" x2="0" y2="70" gradientUnits="userSpaceOnUse" id="color-1"><stop offset="0" stop-color="#51bbff"/><stop offset="1" stop-color="#1e88e5"/></linearGradient></defs><g fill="none" fill-rule="nonzero" stroke="none" stroke-width="1" stroke-linecap="butt" stroke-linejoin="miter" stroke-miterlimit="10" stroke-dasharray="" stroke-dashoffset="0" font-family="none" font-weight="none" font-size="none" text-anchor="none" style="mix-blend-mode: normal"><path d="M3.5,70c-1.933,0 -3.5,-1.567 -3.5,-3.5v-63c0,-1.933 1.567,-3.5 3.5,-3.5h63c1.933,0 3.5,1.567 3.5,3.5v63c0,1.933 -1.567,3.5 -3.5,3.5z" id="box" fill="url(#color-1)"/><path d="M65,1h-61c-1.95033,0 -3.2667,0.63396 -3.9491,1.90189c0.28378,-1.64806 1.72001,-2.90189 3.4491,-2.90189h63c1.72965,0 3.16627,1.25466 3.44938,2.90352c-0.69803,-1.26902 -2.34782,-1.90352 -4.94938,-1.90352z" id="topBoxShadow" fill="#ffffff" opacity="0.383"/><path d="M4,69h61c2.66667,0 4.33333,-1 5,-3v0.5c0,1.933 -1.567,3.5 -3.5,3.5h-63c-1.933,0 -3.5,-1.567 -3.5,-3.5c0,-0.1611 0,-0.32777 0,-0.5c0.66667,2 2,3 4,3z" id="bottomBoxShadow" fill="#000000" opacity="0.383"/><path d="M45.04613,14c-1.84064,0.01355 -3.67125,0.27349 -5.44264,0.77379l-0.12545,0.03764c-1.11603,-0.19119 -2.2446,-0.29657 -3.37668,-0.31564c-2.3269,-0.03964 -4.32812,0.50783 -5.93793,1.42163c-1.58923,-0.53543 -4.88412,-1.45726 -8.35716,-1.27309c-2.41923,0.12746 -5.05775,0.84053 -7.0128,2.84376c-1.95054,2.00323 -2.98176,5.10191 -2.76397,9.31913c0.05871,1.1647 0.39944,3.06105 0.96799,5.51992c0.56454,2.45687 1.36342,5.33174 2.3565,7.95571c0.99308,2.62598 2.08251,4.98449 3.78466,6.58627c0.84906,0.8029 2.01778,1.47833 3.39575,1.42163c0.96799,-0.03764 1.84415,-0.44962 2.59888,-1.05782c0.36783,0.4707 0.76125,0.67544 1.11854,0.86562c0.44962,0.23836 0.88871,0.40145 1.34234,0.51034c1.25653,0.32166 2.56526,0.38639 3.84738,0.19019c0.55801,-0.08982 1.14563,-0.26546 1.73125,-0.51636c0.02108,0.63128 0.04617,1.25051 0.07326,1.87778c0.07929,1.98617 0.13198,3.82028 0.74619,5.42809c0.09835,0.26345 0.36783,1.61633 1.43618,2.81014c1.06635,1.19581 3.15739,1.9405 5.53648,1.44672c1.67906,-0.34926 3.81577,-0.97853 5.23338,-2.93559c1.40106,-1.93599 2.03434,-4.71501 2.15979,-9.21876c0.03111,-0.24237 0.06925,-0.44962 0.10889,-0.64382l0.33471,0.02911h0.03764c1.79197,0.07929 3.73648,-0.1671 5.36084,-0.89924c1.43869,-0.64834 2.52561,-1.30069 3.31797,-2.46088c0.19872,-0.28653 0.416,-0.63379 0.47471,-1.23345c0.05871,-0.59565 -0.29256,-1.53253 -0.88018,-1.96308c-1.17725,-0.86562 -1.91541,-0.53744 -2.70777,-0.37636c-0.77981,0.1671 -1.57418,0.25944 -2.37507,0.278c2.28525,-3.72996 3.92265,-7.69426 4.85703,-11.20292c0.55199,-2.06997 0.86362,-3.97886 0.88871,-5.64738c0.02509,-1.66852 -0.11491,-3.14685 -1.14563,-4.42647c-3.22213,-3.99341 -7.75298,-5.09739 -11.25712,-5.13503c-0.10889,-0.00201 -0.21728,-0.00401 -0.32618,-0.00201zM44.95429,15.22693c3.31396,-0.03111 7.55024,0.87215 10.59021,4.64175c0.68397,0.84706 0.8867,2.08452 0.86362,3.61103c-0.02509,1.524 -0.31564,3.34758 -0.84706,5.34629c-1.03072,3.87247 -2.97975,8.38425 -5.72466,12.43637c0.09785,0.06724 0.20273,0.12244 0.31363,0.1651c0.57307,0.22983 1.87778,0.42654 4.48468,-0.09183c0.65436,-0.13599 1.1351,-0.22581 1.63289,0.14201c0.24187,0.19972 0.37586,0.50181 0.36181,0.81544c-0.0271,0.23384 -0.11592,0.45615 -0.25743,0.64382c-0.50181,0.73415 -1.4969,1.43016 -2.7725,2.00323c-1.12707,0.51034 -2.74541,0.7758 -4.17958,0.79236c-0.71909,0.00652 -1.38199,-0.04817 -1.94452,-0.21728l-0.03764,-0.01255c-0.21728,2.03033 -0.71709,6.0428 -1.04126,7.8719c-0.26144,1.47633 -0.71709,2.64906 -1.58923,3.52723c-0.86964,0.87817 -2.09907,1.40708 -3.75505,1.75232c-2.0509,0.42654 -3.5463,-0.03362 -4.51027,-0.82197c-0.96197,-0.78383 -1.40306,-1.82759 -1.66852,-2.4674c-0.18166,-0.43908 -0.276,-1.01014 -0.36783,-1.7729c-0.10086,-0.9138 -0.16861,-1.83061 -0.20273,-2.74942c-0.06022,-1.61131 -0.07979,-3.22413 -0.05871,-4.83595c-0.85709,0.76125 -1.92344,1.26707 -3.06757,1.45726c-1.3589,0.22381 -2.57579,0.00401 -3.30141,-0.17162c-0.35578,-0.08732 -0.69952,-0.21728 -1.0247,-0.3869c-0.33872,-0.17363 -0.65888,-0.37034 -0.87215,-0.75874c-0.12545,-0.2218 -0.1656,-0.48224 -0.11291,-0.73164c0.06825,-0.25341 0.22029,-0.47672 0.43055,-0.63379c0.39292,-0.30962 0.90978,-0.48073 1.6896,-0.63981c1.42163,-0.28202 1.91742,-0.47672 2.21851,-0.70906c0.25693,-0.19872 0.54798,-0.60017 1.06233,-1.1918c-0.00251,-0.02559 -0.00452,-0.05169 -0.00652,-0.07728c-0.91731,-0.02509 -1.81655,-0.26044 -2.62798,-0.68798c-0.29506,0.30309 -1.80853,1.8567 -3.65469,4.01047c-0.7758,0.90125 -1.63289,1.41762 -2.53816,1.45525c-0.90527,0.03764 -1.72272,-0.40546 -2.41722,-1.05782c-1.39052,-1.30872 -2.49852,-3.56085 -3.4645,-6.10553c-0.96197,-2.54669 -1.74781,-5.38192 -2.30431,-7.79663c-0.56052,-2.41471 -0.89071,-4.36174 -0.93688,-5.30063c-0.20926,-3.9914 0.75272,-6.6801 2.40468,-8.37622c1.65196,-1.69562 3.91412,-2.33743 6.12209,-2.46088c3.96029,-0.2218 7.72136,1.11854 8.48261,1.40708c1.46579,-0.96599 3.3536,-1.56816 5.71462,-1.53052c1.11904,0.01505 2.23256,0.15556 3.32048,0.41801l0.03964,-0.01656c0.47873,-0.16309 0.96599,-0.30109 1.45927,-0.40998c1.34335,-0.3036 2.7148,-0.46518 4.09176,-0.48073v-0.00401zM45.25287,16.51106h-0.28653c-1.13108,0.01505 -2.25865,0.1385 -3.36615,0.36783c2.19893,0.95745 4.13141,2.4378 5.62881,4.31156c0.90677,1.12105 1.65899,2.35901 2.23707,3.67978c0.21728,0.50583 0.36381,0.93487 0.44561,1.26506c0.04165,0.1671 0.07126,0.30761 0.07929,0.45364c0.00803,0.09283 0.0005,0.18617 -0.02308,0.276l-0.01255,0.02509c0.06072,1.67906 -0.36783,2.81616 -0.42052,4.41794c-0.03964,1.1627 0.26546,2.52762 0.34073,4.01449c0.07126,1.40106 -0.10237,2.9376 -1.03925,4.44755c0.07929,0.09183 0.15054,0.18416 0.22581,0.276c2.47744,-3.78466 4.26539,-7.97478 5.21682,-11.54365c0.50783,-1.92344 0.77981,-3.66523 0.8029,-5.0452c0.02108,-1.37998 -0.24488,-2.38159 -0.5831,-2.79759c-2.65107,-3.28887 -6.23701,-4.12739 -9.24586,-4.15048zM35.79173,17.00233c-2.33543,0.00401 -4.01248,0.68999 -5.28156,1.71469c-1.31123,1.06033 -2.1894,2.50905 -2.76648,3.99592c-0.55852,1.48586 -0.90025,3.04398 -1.01416,4.6272l0.0271,-0.01455c0.70454,-0.38489 1.63088,-0.76727 2.62196,-0.98907c0.99308,-0.2218 2.06144,-0.29055 3.02993,0.07326c0.96799,0.36582 1.76888,1.22091 2.05943,2.5216c1.39052,6.24353 -0.43306,8.5644 -1.10599,10.31422c-0.25492,0.63479 -0.47321,1.28313 -0.65436,1.94251c0.08581,-0.02108 0.17162,-0.04165 0.25492,-0.05018c0.36733,-0.02007 0.73365,0.05219 1.06635,0.20926c0.67744,0.27198 1.14162,0.84053 1.39252,1.49289c0.06473,0.17162 0.11291,0.35528 0.14001,0.54346c0.02911,0.07929 0.04165,0.16108 0.03964,0.24438c-0.07527,2.38711 -0.06674,4.77674 0.02509,7.16335c0.04617,1.03273 0.11291,1.9405 0.19872,2.65759c0.0838,0.71508 0.20474,1.25854 0.28202,1.44271c0.25091,0.61472 0.62124,1.41762 1.29016,1.96308c0.66891,0.54346 1.62436,0.90727 3.37468,0.54346c1.51798,-0.31564 2.45486,-0.75272 3.08212,-1.3865c0.62325,-0.62927 0.9971,-1.50543 1.23596,-2.84978c0.35779,-2.01377 1.07689,-7.84932 1.1627,-8.94879c-0.03764,-0.82598 0.08782,-1.46378 0.3598,-1.94853c0.28252,-0.4978 0.71709,-0.8029 1.09144,-0.96799c0.18818,-0.0838 0.36381,-0.138 0.50783,-0.17764c-0.15305,-0.21327 -0.31363,-0.42102 -0.48073,-0.62325c-0.53894,-0.63379 -0.98204,-1.34285 -1.31525,-2.1056c-0.15907,-0.31413 -0.32869,-0.62325 -0.50783,-0.92634c-0.26144,-0.46016 -0.59364,-1.03473 -0.9409,-1.68107c-0.69601,-1.29417 -1.45324,-2.86233 -1.84616,-4.39084c-0.39091,-1.524 -0.44962,-3.1027 0.554,-4.21722c0.89071,-0.98907 2.45034,-1.39905 4.7943,-1.16872c-0.06925,-0.20072 -0.1109,-0.36783 -0.22782,-0.63579c-0.53192,-1.21338 -1.22291,-2.35048 -2.05542,-3.3807c-1.98617,-2.46289 -5.19976,-4.9052 -10.16769,-4.98449h-0.22581zM22.66938,17.10069c-0.25091,0 -0.50181,0.00853 -0.75272,0.02108c-1.9947,0.1109 -3.8805,0.67343 -5.22937,2.06144c-1.35288,1.3865 -2.24159,3.66121 -2.04889,7.42881c0.03964,0.71107 0.3598,2.70978 0.90727,5.08083c0.54798,2.37507 1.32578,5.16664 2.25815,7.63154c0.93236,2.4674 2.06595,4.61465 3.14033,5.63082c0.54145,0.50783 1.01215,0.71307 1.43869,0.69601c0.42855,-0.02108 0.9429,-0.25944 1.57468,-0.99308c1.15015,-1.34586 2.34245,-2.65458 3.5754,-3.92466c-0.87064,-0.73114 -1.54156,-1.67153 -1.94853,-2.73286c-0.40195,-1.0518 -0.52439,-2.1904 -0.35528,-3.30342c0.20273,-1.41762 0.22983,-2.7434 0.20675,-3.78867c-0.02509,-1.02018 -0.10036,-1.69763 -0.10036,-2.12216v-0.05871c-0.00201,-2.20997 0.39392,-4.40188 1.16872,-6.47135c0.55199,-1.42615 1.37596,-2.87487 2.61142,-4.04811c-1.21288,-0.3869 -3.36615,-0.97652 -5.69756,-1.08742c-0.25091,-0.01305 -0.50181,-0.02007 -0.75272,-0.02108zM47.16226,27.22472c-1.34034,0.01656 -2.09305,0.35327 -2.48798,0.79236c-0.56052,0.62325 -0.61271,1.71469 -0.26546,3.06105c0.34474,1.34636 1.06033,2.8543 1.73325,4.10431c0.33471,0.62726 0.66088,1.1918 0.92434,1.64744c0.26546,0.46016 0.46016,0.78634 0.57708,1.06635c0.10889,0.25492 0.22983,0.48073 0.35127,0.692c0.51837,-1.06434 0.61271,-2.1076 0.55801,-3.19704c-0.06925,-1.34636 -0.39091,-2.72433 -0.34274,-4.11886c0.05219,-1.63088 0.38489,-2.69523 0.41399,-3.95577c-0.48475,-0.06072 -0.97301,-0.09183 -1.46127,-0.09183zM30.89506,27.44401c-0.40948,0.00401 -0.81745,0.05169 -1.21689,0.14201c-0.79386,0.18718 -1.56013,0.47672 -2.27922,0.86161c-0.24037,0.12545 -0.47271,0.27198 -0.68999,0.43708l-0.04165,0.03764c0.01255,0.28001 0.06925,0.95946 0.09434,1.95706c0.02108,1.09345 -0.00401,2.48798 -0.2218,3.99341c-0.47271,3.27833 1.97814,5.99262 4.85903,5.99664c0.1671,-0.67343 0.44511,-1.35489 0.7216,-2.07398c0.8029,-2.09707 2.38159,-3.62558 1.0518,-9.59512c-0.21728,-0.97652 -0.64834,-1.37145 -1.24198,-1.59526c-0.3327,-0.11391 -0.68296,-0.16861 -1.03524,-0.16108zM46.535,27.83492h0.10036c0.12947,0.00401 0.25091,0.01907 0.35528,0.04165c0.09635,0.01907 0.18818,0.0552 0.27198,0.10638c0.07628,0.04617 0.13047,0.12194 0.14854,0.20926v0.01656c0.00351,0.09183 -0.02158,0.18216 -0.07126,0.25944c-0.05871,0.10538 -0.13198,0.20173 -0.21728,0.28653c-0.20223,0.21528 -0.46969,0.35879 -0.76125,0.40747c-0.28553,0.03362 -0.57357,-0.03663 -0.81143,-0.19872c-0.09635,-0.06273 -0.18266,-0.1385 -0.25743,-0.22581c-0.06373,-0.06724 -0.10739,-0.15155 -0.12545,-0.24237c-0.00903,-0.09033 0.02158,-0.18015 0.0838,-0.24689c0.06574,-0.07176 0.14452,-0.12997 0.23234,-0.17162c0.33019,-0.15456 0.68899,-0.23836 1.0538,-0.24689v0.00401zM31.08726,28.15708c0.10438,0 0.21528,0.01054 0.32818,0.02509c0.30109,0.04165 0.57056,0.11943 0.7758,0.23435c0.10036,0.05219 0.18818,0.11943 0.26345,0.20273c0.03914,0.04466 0.06875,0.09635 0.08782,0.15255c0.01857,0.0557 0.02509,0.11491 0.01907,0.17363c-0.01957,0.1109 -0.07126,0.21327 -0.14854,0.29506c-0.08129,0.09735 -0.17614,0.18166 -0.28202,0.25091c-0.25944,0.17714 -0.57457,0.25341 -0.8867,0.21528c-0.31664,-0.05018 -0.60769,-0.20374 -0.82799,-0.43708c-0.09283,-0.09283 -0.17162,-0.19822 -0.23435,-0.31363c-0.06524,-0.10036 -0.09384,-0.21979 -0.08129,-0.33872c0.02911,-0.20926 0.20675,-0.31363 0.37636,-0.37636c0.19621,-0.06022 0.40145,-0.08581 0.60619,-0.07527zM48.98534,42.23287h-0.00652c-0.29055,0.10438 -0.52891,0.14653 -0.73164,0.22983c-0.20173,0.07527 -0.36883,0.2218 -0.4707,0.41199c-0.12545,0.21979 -0.22983,0.6107 -0.19872,1.2756c0.08982,0.05972 0.18868,0.10488 0.29256,0.13398c0.33671,0.10036 0.90326,0.1671 1.53654,0.15656c1.25854,-0.01455 2.81014,-0.29908 3.63411,-0.67092c0.67544,-0.3051 1.3027,-0.70253 1.86272,-1.17926c-2.75394,0.55199 -4.30704,0.40546 -5.26299,0.02308c-0.23635,-0.09484 -0.45765,-0.22381 -0.65637,-0.38238zM33.11959,42.41252h-0.04165c-0.10438,0.00853 -0.25693,0.04165 -0.54998,0.3598c-0.68999,0.7487 -0.92835,1.21689 -1.4969,1.65598c-0.56454,0.43908 -1.3027,0.67142 -2.77451,0.96398c-0.46618,0.09183 -0.73164,0.1947 -0.91179,0.276c0.05871,0.04617 0.05219,0.05871 0.138,0.10237c0.21528,0.11491 0.49328,0.21528 0.71508,0.27198c0.63379,0.15255 1.67254,0.3322 2.75795,0.15255c1.08291,-0.17965 2.21198,-0.68347 3.17395,-1.99269c0.1671,-0.22581 0.18416,-0.56052 0.04817,-0.91982c-0.14001,-0.35528 -0.44109,-0.6649 -0.65436,-0.75272c-0.12746,-0.05871 -0.26395,-0.09685 -0.40346,-0.11291z" id="shadow" fill="#000000" opacity="0.3"/><path d="M14.86571,15.41495c1.9475,-1.9475 4.551,-2.64473 6.94056,-2.77063c3.47303,-0.18416 6.76792,0.73766 8.35716,1.27309c1.60981,-0.9138 3.61103,-1.46127 5.93793,-1.42163c1.13208,0.01907 2.26066,0.12445 3.37668,0.31564l0.12545,-0.03764c1.77139,-0.50031 3.602,-0.76024 5.44264,-0.77379l0.0005,0.00753c0.10889,-0.00201 0.21728,0 0.32618,0.00201c3.50414,0.03764 8.03499,1.14162 11.25712,5.13503c1.03072,1.27962 1.17072,2.75795 1.14563,4.42647c-0.02509,1.66852 -0.33671,3.57741 -0.88871,5.64738c-0.93437,3.50866 -2.57178,7.47297 -4.85703,11.20292c0.80089,-0.01857 1.59526,-0.1109 2.37507,-0.278c0.79236,-0.16108 1.53052,-0.48927 2.70777,0.37636c0.58762,0.43055 0.93889,1.36743 0.88018,1.96308c-0.05871,0.59966 -0.276,0.94692 -0.47471,1.23345c-0.19496,0.28547 -0.40776,0.54019 -0.63924,0.77168l-9.23774,9.23774c-0.34276,1.28285 -0.81595,2.31792 -1.44286,3.18419c-0.20252,0.27959 -0.41973,0.53208 -0.64817,0.76053l-14.32964,14.32964h-27.72047c-1.933,0 -3.5,-1.567 -3.5,-3.5l0,-36.21934z" id="flatShadow" fill="#000000" opacity="0.324"/><path d="M45.04613,12c-1.84064,0.01355 -3.67125,0.27349 -5.44264,0.77379l-0.12545,0.03764c-1.11603,-0.19119 -2.2446,-0.29657 -3.37668,-0.31564c-2.3269,-0.03964 -4.32812,0.50783 -5.93793,1.42163c-1.58923,-0.53543 -4.88412,-1.45726 -8.35716,-1.27309c-2.41923,0.12746 -5.05775,0.84053 -7.0128,2.84376c-1.95054,2.00323 -2.98176,5.10191 -2.76397,9.31913c0.05871,1.1647 0.39944,3.06105 0.96799,5.51992c0.56454,2.45687 1.36342,5.33174 2.3565,7.95571c0.99308,2.62598 2.08251,4.98449 3.78466,6.58627c0.84906,0.8029 2.01778,1.47833 3.39575,1.42163c0.96799,-0.03764 1.84415,-0.44962 2.59888,-1.05782c0.36783,0.4707 0.76125,0.67544 1.11854,0.86562c0.44962,0.23836 0.88871,0.40145 1.34234,0.51034c1.25653,0.32166 2.56526,0.38639 3.84738,0.19019c0.55801,-0.08982 1.14563,-0.26546 1.73125,-0.51636c0.02108,0.63128 0.04617,1.25051 0.07326,1.87778c0.07929,1.98617 0.13198,3.82028 0.74619,5.42809c0.09835,0.26345 0.36783,1.61633 1.43618,2.81014c1.06635,1.19581 3.15739,1.9405 5.53648,1.44672c1.67906,-0.34926 3.81577,-0.97853 5.23338,-2.93559c1.40106,-1.93599 2.03434,-4.71501 2.15979,-9.21876c0.03111,-0.24237 0.06925,-0.44962 0.10889,-0.64382l0.33471,0.02911h0.03764c1.79197,0.07929 3.73648,-0.1671 5.36084,-0.89924c1.43869,-0.64834 2.52561,-1.30069 3.31797,-2.46088c0.19872,-0.28653 0.416,-0.63379 0.47471,-1.23345c0.05871,-0.59565 -0.29256,-1.53253 -0.88018,-1.96308c-1.17725,-0.86562 -1.91541,-0.53744 -2.70777,-0.37636c-0.77981,0.1671 -1.57418,0.25944 -2.37507,0.278c2.28525,-3.72996 3.92265,-7.69426 4.85703,-11.20292c0.55199,-2.06997 0.86362,-3.97886 0.88871,-5.64738c0.02509,-1.66852 -0.11491,-3.14685 -1.14563,-4.42647c-3.22213,-3.99341 -7.75298,-5.09739 -11.25712,-5.13503c-0.10889,-0.00201 -0.21728,-0.00401 -0.32618,-0.00201zM44.95429,13.22693c3.31396,-0.03111 7.55024,0.87215 10.59021,4.64175c0.68397,0.84706 0.8867,2.08452 0.86362,3.61103c-0.02509,1.524 -0.31564,3.34758 -0.84706,5.34629c-1.03072,3.87247 -2.97975,8.38425 -5.72466,12.43637c0.09785,0.06724 0.20273,0.12244 0.31363,0.1651c0.57307,0.22983 1.87778,0.42654 4.48468,-0.09183c0.65436,-0.13599 1.1351,-0.22581 1.63289,0.14201c0.24187,0.19972 0.37586,0.50181 0.36181,0.81544c-0.0271,0.23384 -0.11592,0.45615 -0.25743,0.64382c-0.50181,0.73415 -1.4969,1.43016 -2.7725,2.00323c-1.12707,0.51034 -2.74541,0.7758 -4.17958,0.79236c-0.71909,0.00652 -1.38199,-0.04817 -1.94452,-0.21728l-0.03764,-0.01255c-0.21728,2.03033 -0.71709,6.0428 -1.04126,7.8719c-0.26144,1.47633 -0.71709,2.64906 -1.58923,3.52723c-0.86964,0.87817 -2.09907,1.40708 -3.75505,1.75232c-2.0509,0.42654 -3.5463,-0.03362 -4.51027,-0.82197c-0.96197,-0.78383 -1.40306,-1.82759 -1.66852,-2.4674c-0.18166,-0.43908 -0.276,-1.01014 -0.36783,-1.7729c-0.10086,-0.9138 -0.16861,-1.83061 -0.20273,-2.74942c-0.06022,-1.61131 -0.07979,-3.22413 -0.05871,-4.83595c-0.85709,0.76125 -1.92344,1.26707 -3.06757,1.45726c-1.3589,0.22381 -2.57579,0.00401 -3.30141,-0.17162c-0.35578,-0.08732 -0.69952,-0.21728 -1.0247,-0.3869c-0.33872,-0.17363 -0.65888,-0.37034 -0.87215,-0.75874c-0.12545,-0.2218 -0.1656,-0.48224 -0.11291,-0.73164c0.06825,-0.25341 0.22029,-0.47672 0.43055,-0.63379c0.39292,-0.30962 0.90978,-0.48073 1.6896,-0.63981c1.42163,-0.28202 1.91742,-0.47672 2.21851,-0.70906c0.25693,-0.19872 0.54798,-0.60017 1.06233,-1.1918c-0.00251,-0.02559 -0.00452,-0.05169 -0.00652,-0.07728c-0.91731,-0.02509 -1.81655,-0.26044 -2.62798,-0.68798c-0.29506,0.30309 -1.80853,1.8567 -3.65469,4.01047c-0.7758,0.90125 -1.63289,1.41762 -2.53816,1.45525c-0.90527,0.03764 -1.72272,-0.40546 -2.41722,-1.05782c-1.39052,-1.30872 -2.49852,-3.56085 -3.4645,-6.10553c-0.96197,-2.54669 -1.74781,-5.38192 -2.30431,-7.79663c-0.56052,-2.41471 -0.89071,-4.36174 -0.93688,-5.30063c-0.20926,-3.9914 0.75272,-6.6801 2.40468,-8.37622c1.65196,-1.69562 3.91412,-2.33743 6.12209,-2.46088c3.96029,-0.2218 7.72136,1.11854 8.48261,1.40708c1.46579,-0.96599 3.3536,-1.56816 5.71462,-1.53052c1.11904,0.01505 2.23256,0.15556 3.32048,0.41801l0.03964,-0.01656c0.47873,-0.16309 0.96599,-0.30109 1.45927,-0.40998c1.34335,-0.3036 2.7148,-0.46518 4.09176,-0.48073v-0.00401zM45.25287,14.51106h-0.28653c-1.13108,0.01505 -2.25865,0.1385 -3.36615,0.36783c2.19893,0.95745 4.13141,2.4378 5.62881,4.31156c0.90677,1.12105 1.65899,2.35901 2.23707,3.67978c0.21728,0.50583 0.36381,0.93487 0.44561,1.26506c0.04165,0.1671 0.07126,0.30761 0.07929,0.45364c0.00803,0.09283 0.0005,0.18617 -0.02308,0.276l-0.01255,0.02509c0.06072,1.67906 -0.36783,2.81616 -0.42052,4.41794c-0.03964,1.1627 0.26546,2.52762 0.34073,4.01449c0.07126,1.40106 -0.10237,2.9376 -1.03925,4.44755c0.07929,0.09183 0.15054,0.18416 0.22581,0.276c2.47744,-3.78466 4.26539,-7.97478 5.21682,-11.54365c0.50783,-1.92344 0.77981,-3.66523 0.8029,-5.0452c0.02108,-1.37998 -0.24488,-2.38159 -0.5831,-2.79759c-2.65107,-3.28887 -6.23701,-4.12739 -9.24586,-4.15048zM35.79173,15.00233c-2.33543,0.00401 -4.01248,0.68999 -5.28156,1.71469c-1.31123,1.06033 -2.1894,2.50905 -2.76648,3.99592c-0.55852,1.48586 -0.90025,3.04398 -1.01416,4.6272l0.0271,-0.01455c0.70454,-0.38489 1.63088,-0.76727 2.62196,-0.98907c0.99308,-0.2218 2.06144,-0.29055 3.02993,0.07326c0.96799,0.36582 1.76888,1.22091 2.05943,2.5216c1.39052,6.24353 -0.43306,8.5644 -1.10599,10.31422c-0.25492,0.63479 -0.47321,1.28313 -0.65436,1.94251c0.08581,-0.02108 0.17162,-0.04165 0.25492,-0.05018c0.36733,-0.02007 0.73365,0.05219 1.06635,0.20926c0.67744,0.27198 1.14162,0.84053 1.39252,1.49289c0.06473,0.17162 0.11291,0.35528 0.14001,0.54346c0.02911,0.07929 0.04165,0.16108 0.03964,0.24438c-0.07527,2.38711 -0.06674,4.77674 0.02509,7.16335c0.04617,1.03273 0.11291,1.9405 0.19872,2.65759c0.0838,0.71508 0.20474,1.25854 0.28202,1.44271c0.25091,0.61472 0.62124,1.41762 1.29016,1.96308c0.66891,0.54346 1.62436,0.90727 3.37468,0.54346c1.51798,-0.31564 2.45486,-0.75272 3.08212,-1.3865c0.62325,-0.62927 0.9971,-1.50543 1.23596,-2.84978c0.35779,-2.01377 1.07689,-7.84932 1.1627,-8.94879c-0.03764,-0.82598 0.08782,-1.46378 0.3598,-1.94853c0.28252,-0.4978 0.71709,-0.8029 1.09144,-0.96799c0.18818,-0.0838 0.36381,-0.138 0.50783,-0.17764c-0.15305,-0.21327 -0.31363,-0.42102 -0.48073,-0.62325c-0.53894,-0.63379 -0.98204,-1.34285 -1.31525,-2.1056c-0.15907,-0.31413 -0.32869,-0.62325 -0.50783,-0.92634c-0.26144,-0.46016 -0.59364,-1.03473 -0.9409,-1.68107c-0.69601,-1.29417 -1.45324,-2.86233 -1.84616,-4.39084c-0.39091,-1.524 -0.44962,-3.1027 0.554,-4.21722c0.89071,-0.98907 2.45034,-1.39905 4.7943,-1.16872c-0.06925,-0.20072 -0.1109,-0.36783 -0.22782,-0.63579c-0.53192,-1.21338 -1.22291,-2.35048 -2.05542,-3.3807c-1.98617,-2.46289 -5.19976,-4.9052 -10.16769,-4.98449h-0.22581zM22.66938,15.10069c-0.25091,0 -0.50181,0.00853 -0.75272,0.02108c-1.9947,0.1109 -3.8805,0.67343 -5.22937,2.06144c-1.35288,1.3865 -2.24159,3.66121 -2.04889,7.42881c0.03964,0.71107 0.3598,2.70978 0.90727,5.08083c0.54798,2.37507 1.32578,5.16664 2.25815,7.63154c0.93236,2.4674 2.06595,4.61465 3.14033,5.63082c0.54145,0.50783 1.01215,0.71307 1.43869,0.69601c0.42855,-0.02108 0.9429,-0.25944 1.57468,-0.99308c1.15015,-1.34586 2.34245,-2.65458 3.5754,-3.92466c-0.87064,-0.73114 -1.54156,-1.67153 -1.94853,-2.73286c-0.40195,-1.0518 -0.52439,-2.1904 -0.35528,-3.30342c0.20273,-1.41762 0.22983,-2.7434 0.20675,-3.78867c-0.02509,-1.02018 -0.10036,-1.69763 -0.10036,-2.12216v-0.05871c-0.00201,-2.20997 0.39392,-4.40188 1.16872,-6.47135c0.55199,-1.42615 1.37596,-2.87487 2.61142,-4.04811c-1.21288,-0.3869 -3.36615,-0.97652 -5.69756,-1.08742c-0.25091,-0.01305 -0.50181,-0.02007 -0.75272,-0.02108zM47.16226,25.22472c-1.34034,0.01656 -2.09305,0.35327 -2.48798,0.79236c-0.56052,0.62325 -0.61271,1.71469 -0.26546,3.06105c0.34474,1.34636 1.06033,2.8543 1.73325,4.10431c0.33471,0.62726 0.66088,1.1918 0.92434,1.64744c0.26546,0.46016 0.46016,0.78634 0.57708,1.06635c0.10889,0.25492 0.22983,0.48073 0.35127,0.692c0.51837,-1.06434 0.61271,-2.1076 0.55801,-3.19704c-0.06925,-1.34636 -0.39091,-2.72433 -0.34274,-4.11886c0.05219,-1.63088 0.38489,-2.69523 0.41399,-3.95577c-0.48475,-0.06072 -0.97301,-0.09183 -1.46127,-0.09183zM30.89506,25.44401c-0.40948,0.00401 -0.81745,0.05169 -1.21689,0.14201c-0.79386,0.18718 -1.56013,0.47672 -2.27922,0.86161c-0.24037,0.12545 -0.47271,0.27198 -0.68999,0.43708l-0.04165,0.03764c0.01255,0.28001 0.06925,0.95946 0.09434,1.95706c0.02108,1.09345 -0.00401,2.48798 -0.2218,3.99341c-0.47271,3.27833 1.97814,5.99262 4.85903,5.99664c0.1671,-0.67343 0.44511,-1.35489 0.7216,-2.07398c0.8029,-2.09707 2.38159,-3.62558 1.0518,-9.59512c-0.21728,-0.97652 -0.64834,-1.37145 -1.24198,-1.59526c-0.3327,-0.11391 -0.68296,-0.16861 -1.03524,-0.16108zM46.535,25.83492h0.10036c0.12947,0.00401 0.25091,0.01907 0.35528,0.04165c0.09635,0.01907 0.18818,0.0552 0.27198,0.10638c0.07628,0.04617 0.13047,0.12194 0.14854,0.20926v0.01656c0.00351,0.09183 -0.02158,0.18216 -0.07126,0.25944c-0.05871,0.10538 -0.13198,0.20173 -0.21728,0.28653c-0.20223,0.21528 -0.46969,0.35879 -0.76125,0.40747c-0.28553,0.03362 -0.57357,-0.03663 -0.81143,-0.19872c-0.09635,-0.06273 -0.18266,-0.1385 -0.25743,-0.22581c-0.06373,-0.06724 -0.10739,-0.15155 -0.12545,-0.24237c-0.00903,-0.09033 0.02158,-0.18015 0.0838,-0.24689c0.06574,-0.07176 0.14452,-0.12997 0.23234,-0.17162c0.33019,-0.15456 0.68899,-0.23836 1.0538,-0.24689v0.00401zM31.08726,26.15708c0.10438,0 0.21528,0.01054 0.32818,0.02509c0.30109,0.04165 0.57056,0.11943 0.7758,0.23435c0.10036,0.05219 0.18818,0.11943 0.26345,0.20273c0.03914,0.04466 0.06875,0.09635 0.08782,0.15255c0.01857,0.0557 0.02509,0.11491 0.01907,0.17363c-0.01957,0.1109 -0.07126,0.21327 -0.14854,0.29506c-0.08129,0.09735 -0.17614,0.18166 -0.28202,0.25091c-0.25944,0.17714 -0.57457,0.25341 -0.8867,0.21528c-0.31664,-0.05018 -0.60769,-0.20374 -0.82799,-0.43708c-0.09283,-0.09283 -0.17162,-0.19822 -0.23435,-0.31363c-0.06524,-0.10036 -0.09384,-0.21979 -0.08129,-0.33872c0.02911,-0.20926 0.20675,-0.31363 0.37636,-0.37636c0.19621,-0.06022 0.40145,-0.08581 0.60619,-0.07527zM48.98534,40.23287h-0.00652c-0.29055,0.10438 -0.52891,0.14653 -0.73164,0.22983c-0.20173,0.07527 -0.36883,0.2218 -0.4707,0.41199c-0.12545,0.21979 -0.22983,0.6107 -0.19872,1.2756c0.08982,0.05972 0.18868,0.10488 0.29256,0.13398c0.33671,0.10036 0.90326,0.1671 1.53654,0.15656c1.25854,-0.01455 2.81014,-0.29908 3.63411,-0.67092c0.67544,-0.3051 1.3027,-0.70253 1.86272,-1.17926c-2.75394,0.55199 -4.30704,0.40546 -5.26299,0.02308c-0.23635,-0.09484 -0.45765,-0.22381 -0.65637,-0.38238zM33.11959,40.41252h-0.04165c-0.10438,0.00853 -0.25693,0.04165 -0.54998,0.3598c-0.68999,0.7487 -0.92835,1.21689 -1.4969,1.65598c-0.56454,0.43908 -1.3027,0.67142 -2.77451,0.96398c-0.46618,0.09183 -0.73164,0.1947 -0.91179,0.276c0.05871,0.04617 0.05219,0.05871 0.138,0.10237c0.21528,0.11491 0.49328,0.21528 0.71508,0.27198c0.63379,0.15255 1.67254,0.3322 2.75795,0.15255c1.08291,-0.17965 2.21198,-0.68347 3.17395,-1.99269c0.1671,-0.22581 0.18416,-0.56052 0.04817,-0.91982c-0.14001,-0.35528 -0.44109,-0.6649 -0.65436,-0.75272c-0.12746,-0.05871 -0.26395,-0.09685 -0.40346,-0.11291z" id="icon" fill="#ffffff"/></g></svg>